<svg width="32" height="32" viewBox="0 0 32 32" fill="none" xmlns="http://www.w3.org/2000/svg">
<path d="M18.6883 4.1637C13.3623 4.1641 9.01932 8.50118 9.01892 13.8273C9.01879 17.0888 10.9072 19.4259 11.8313 21.2741C11.8428 21.2967 11.8552 21.3189 11.8684 21.3405L16.7685 29.51C16.8158 29.4592 16.8577 29.4036 16.8935 29.344L22.8952 19.3406C22.9084 19.319 22.9207 19.2968 22.9323 19.2742C23.8692 17.4003 25.6575 15.0196 25.6626 11.8274C25.6624 9.26091 24.6494 6.92947 23.0104 5.19685C21.7079 4.54122 20.2427 4.16381 18.6883 4.1637Z" fill="#E6F7FF"/>
<path d="M16.0045 2.16705C10.6784 2.16745 6.33536 6.50459 6.33496 11.8307C6.33483 15.0923 8.22323 17.4294 9.14735 19.2777C9.15885 19.3003 9.17119 19.3224 9.18437 19.3441L15.1841 29.3476C15.2731 29.4952 15.3987 29.6173 15.5488 29.702C15.6988 29.7867 15.8682 29.8313 16.0406 29.8313C16.2129 29.8313 16.3823 29.7867 16.5323 29.702C16.6824 29.6173 16.808 29.4952 16.897 29.3476L22.8987 19.3441C22.9119 19.3224 22.9242 19.3003 22.9357 19.2777C23.8727 17.4037 25.661 15.023 25.6661 11.8307C25.6657 6.50459 21.3305 2.16745 16.0043 2.16705H16.0045ZM16.0045 4.16891C20.2499 4.16923 23.666 7.58532 23.6663 11.8307C23.6621 14.2475 22.2111 16.2492 21.1488 18.3695L16.0416 26.8887L10.9324 18.3851L10.9245 18.3697C9.84914 16.2241 8.33464 14.2941 8.33474 11.8309C8.33506 7.58546 11.759 4.16937 16.0044 4.16905L16.0045 4.16891ZM16.0045 6.79575C13.2345 6.79575 10.9617 9.06067 10.9617 11.8307C10.9617 14.6008 13.2345 16.8637 16.0045 16.8637C18.7746 16.8637 21.0375 14.6008 21.0375 11.8307C21.0375 9.06067 18.7746 6.79575 16.0045 6.79575ZM16.0045 8.79567C17.6937 8.79567 19.0376 10.1415 19.0376 11.8307C19.0376 13.5199 17.6937 14.8716 16.0045 14.8716C14.3153 14.8716 12.9636 13.5199 12.9636 11.8307C12.9636 10.1415 14.3153 8.79567 16.0045 8.79567Z" fill="#096DD9"/>
</svg>
